<svg width="25" height="25" viewBox="0 0 25 25" fill="none" xmlns="http://www.w3.org/2000/svg">
<path fill-rule="evenodd" clip-rule="evenodd" d="M7.55992 2.23059H16.6894C17.2593 2.23057 17.7433 2.23056 18.1432 2.27191C18.569 2.31593 18.9625 2.41153 19.3343 2.6413C19.7061 2.87107 19.9676 3.1803 20.1974 3.54147C20.4132 3.88069 20.6296 4.31356 20.8845 4.82339L20.901 4.85633C20.9107 4.87577 20.9196 4.89563 20.9276 4.91585L22.3312 8.46399C22.4982 8.88618 22.6833 9.41289 22.7374 9.95187C22.7928 10.5032 22.7168 11.1347 22.2848 11.6825C21.9315 12.1306 21.4402 12.4669 20.8747 12.6269V22.2306H22.1247C22.5389 22.2306 22.8747 22.5664 22.8747 22.9806C22.8747 23.3948 22.5389 23.7306 22.1247 23.7306H2.12466C1.71045 23.7306 1.37466 23.3948 1.37466 22.9806C1.37466 22.5664 1.71045 22.2306 2.12466 22.2306H3.37466V12.627C2.80912 12.4669 2.31778 12.1306 1.96441 11.6825C1.53245 11.1347 1.45648 10.5032 1.51184 9.95186C1.56596 9.41288 1.75105 8.88618 1.91806 8.46399L3.32167 4.91585C3.32967 4.89563 3.33854 4.87577 3.34827 4.85633L3.36476 4.82334C3.61964 4.31354 3.83605 3.88068 4.05189 3.54147C4.2817 3.1803 4.54319 2.87107 4.91497 2.6413C5.28674 2.41153 5.68027 2.31593 6.10608 2.27191C6.506 2.23056 6.98995 2.23057 7.55992 2.23059ZM18.1246 11.8681C18.4606 12.2239 18.8905 12.4902 19.3747 12.6271V22.2306H15.3747V19.4484C15.3747 19.0086 15.3747 18.6292 15.3465 18.318C15.3167 17.9888 15.2506 17.6628 15.0733 17.3556C14.8758 17.0136 14.5917 16.7295 14.2497 16.532C13.9425 16.3547 13.6165 16.2886 13.2874 16.2588C12.9761 16.2306 12.5967 16.2306 12.1569 16.2306H12.0925C11.6527 16.2306 11.2733 16.2306 10.962 16.2588C10.6329 16.2886 10.3069 16.3547 9.99966 16.532C9.65762 16.7295 9.37358 17.0136 9.1761 17.3556C8.99873 17.6628 8.93268 17.9888 8.90284 18.318C8.87463 18.6292 8.87464 19.0086 8.87466 19.4483V22.2306H4.87466V12.6271C5.35879 12.4901 5.78864 12.2239 6.12458 11.8681C6.62596 12.3992 7.33656 12.7306 8.12457 12.7306C8.91259 12.7306 9.62319 12.3992 10.1246 11.8681C10.626 12.3992 11.3366 12.7306 12.1246 12.7306C12.9126 12.7306 13.6232 12.3992 14.1246 11.8681C14.626 12.3992 15.3366 12.7306 16.1246 12.7306C16.9126 12.7306 17.6232 12.3992 18.1246 11.8681ZM10.3747 22.2306H13.8747V19.4806C13.8747 18.9995 13.874 18.6888 13.8526 18.4533C13.8322 18.2282 13.7978 18.1465 13.7742 18.1056C13.7084 17.9916 13.6137 17.8969 13.4997 17.8311C13.4588 17.8075 13.3771 17.7731 13.152 17.7527C12.9165 17.7313 12.6058 17.7306 12.1247 17.7306C11.6436 17.7306 11.3329 17.7313 11.0974 17.7527C10.8723 17.7731 10.7906 17.8075 10.7497 17.8311C10.6357 17.8969 10.541 17.9916 10.4752 18.1056C10.4516 18.1465 10.4172 18.2282 10.3968 18.4533C10.3754 18.6888 10.3747 18.9995 10.3747 19.4806V22.2306ZM6.87457 9.98059C6.87457 10.671 7.43422 11.2306 8.12457 11.2306C8.81493 11.2306 9.37457 10.671 9.37457 9.98059C9.37457 9.56638 9.71036 9.23059 10.1246 9.23059C10.5388 9.23059 10.8746 9.56638 10.8746 9.98059C10.8746 10.671 11.4343 11.2306 12.1246 11.2306C12.815 11.2306 13.3746 10.671 13.3746 9.98059C13.3746 9.56638 13.7104 9.23059 14.1246 9.23059C14.5388 9.23059 14.8746 9.56638 14.8746 9.98059C14.8746 10.671 15.4343 11.2306 16.1246 11.2306C16.815 11.2306 17.3746 10.671 17.3746 9.98059C17.3746 9.56638 17.7104 9.23059 18.1246 9.23059C18.5388 9.23059 18.8746 9.56638 18.8746 9.98059C18.8746 10.671 19.4343 11.2306 20.1246 11.2306C20.5226 11.2306 20.8769 11.0455 21.107 10.7536C21.2209 10.6092 21.276 10.4115 21.2449 10.1017C21.2126 9.77962 21.0937 9.41334 20.9364 9.01577L19.5448 5.49798C19.2771 4.96263 19.0982 4.60808 18.9318 4.34671C18.7719 4.09529 18.6572 3.98621 18.5457 3.91728C18.4342 3.84835 18.2853 3.7946 17.9889 3.76395C17.6752 3.73152 17.2693 3.73059 16.6525 3.73059H7.5968C6.97999 3.73059 6.57406 3.73152 6.26035 3.76395C5.96393 3.7946 5.8151 3.84835 5.70356 3.91728C5.59203 3.98621 5.4774 4.09529 5.31742 4.34671C5.15112 4.60808 4.97221 4.96263 4.70449 5.49798L3.31289 9.01577C3.15561 9.41334 3.03668 9.77962 3.00433 10.1017C2.97322 10.4115 3.02832 10.6092 3.14225 10.7537C3.37236 11.0455 3.72662 11.2306 4.12457 11.2306C4.81493 11.2306 5.37457 10.671 5.37457 9.98059C5.37457 9.56638 5.71036 9.23059 6.12457 9.23059C6.53879 9.23059 6.87457 9.56638 6.87457 9.98059Z" fill="#282828"/>
</svg>
